<?xml version="1.0" standalone="no"?>
<!DOCTYPE svg PUBLIC "-//W3C//DTD SVG 20010904//EN"
 "http://www.w3.org/TR/2001/REC-SVG-20010904/DTD/svg10.dtd">
<svg version="1.0" xmlns="http://www.w3.org/2000/svg"
 width="16.000000pt" height="16.000000pt" viewBox="0 0 16.000000 16.000000"
 preserveAspectRatio="xMidYMid meet">
<metadata>
Created by potrace 1.11, written by Peter Selinger 2001-2013
</metadata>
<g transform="translate(0.000000,16.000000) scale(0.006250,-0.006250)"
fill="#000000" stroke="none">
<path d="M1140 2379 c-211 -40 -403 -159 -537 -332 -19 -24 -31 -29 -85 -33
-112 -9 -210 -53 -267 -121 -50 -59 -51 -61 -51 -75 0 -7 -7 -26 -16 -43 -22
-42 -22 -221 1 -295 9 -30 38 -100 66 -155 l49 -100 -11 -75 c-23 -155 24
-351 112 -474 45 -62 113 -130 173 -171 51 -35 54 -40 60 -89 4 -28 11 -57 15
-65 6 -8 -2 -46 -20 -99 -16 -47 -29 -87 -29 -89 0 -2 76 -3 170 -3 l169 0 7
36 c5 26 14 38 33 46 14 6 54 24 87 40 l61 30 77 -18 c73 -17 79 -17 144 0 73
19 118 14 126 -12 2 -10 10 -41 16 -69 l12 -53 174 0 c96 0 174 4 174 8 0 7
-56 167 -74 213 -9 20 4 29 88 65 112 46 206 123 287 234 89 121 137 332 110
488 l-10 64 44 81 c67 124 87 201 87 327 -1 193 -64 283 -257 362 -11 4 -49
10 -85 12 -58 4 -67 8 -94 38 -92 105 -134 145 -211 196 -60 41 -189 102 -213
102 -10 0 -22 4 -27 9 -29 25 -258 39 -355 20z m209 -200 c59 -12 161 -57 161
-72 0 -4 5 -5 11 -2 6 4 29 -14 53 -39 23 -25 46 -46 52 -46 5 0 18 -14 28
-30 10 -18 22 -28 29 -23 8 4 7 1 -1 -9 -15 -19 0 -34 21 -22 9 6 9 4 -1 -8
-9 -11 -9 -22 -3 -39 8 -19 10 -20 10 -6 1 10 6 15 12 12 6 -4 8 -14 5 -22 -3
-8 -1 -11 5 -8 7 5 8 -7 5 -35 -4 -37 -3 -40 12 -28 14 11 15 10 9 -6 -4 -10
-2 -25 4 -33 9 -10 9 -17 1 -25 -15 -15 -16 -31 -1 -22 7 4 7 -1 -1 -16 -8
-15 -8 -20 -1 -16 7 5 11 -2 11 -16 0 -17 11 -28 43 -42 67 -31 160 -130 187
-201 31 -81 36 -175 13 -242 -31 -91 -118 -194 -175 -208 -22 -6 -27 -2 -36
22 -5 15 -20 39 -32 52 -23 23 -23 24 -6 76 29 92 13 185 -40 242 -26 27 -39
33 -74 33 -36 0 -47 -5 -76 -37 -87 -95 -61 -283 48 -336 18 -9 28 -17 23 -17
-6 0 -19 -14 -29 -31 -17 -29 -21 -31 -60 -25 l-41 6 29 -15 c37 -20 55 -19
106 4 52 23 72 18 92 -22 26 -51 29 -81 29 -249 -1 -181 -17 -247 -73 -305
-42 -43 -86 -57 -170 -51 -103 8 -200 60 -304 164 -69 68 -90 97 -133 185 -49
100 -62 151 -41 164 11 7 51 -14 150 -80 41 -28 82 -54 90 -59 20 -11 -32 35
-60 54 -40 26 -84 62 -127 104 -33 30 -43 48 -43 71 0 41 23 72 60 80 36 8
100 -31 264 -157 88 -69 116 -87 116 -74 0 2 -53 46 -117 99 -131 105 -180
153 -170 164 4 4 39 6 79 6 58 -1 83 -7 135 -33 35 -18 67 -30 70 -27 6 7 -73
64 -112 81 -16 7 -58 18 -92 25 -52 10 -68 9 -105 -5 -24 -9 -61 -19 -83 -24
-60 -11 -72 -18 -105 -63 -30 -40 -30 -41 -11 -61 24 -26 36 -72 23 -89 -5 -6
-12 -25 -16 -42 -4 -16 -24 -47 -44 -67 -36 -38 -34 -52 4 -23 10 8 24 15 30
15 13 0 44 -103 44 -148 0 -21 7 -36 22 -46 20 -14 23 -26 25 -98 3 -107 -7
-131 -65 -159 -68 -33 -200 -33 -257 -1 -90 51 -113 125 -116 360 -2 181 12
261 51 297 17 15 23 16 50 5 17 -7 40 -26 51 -41 14 -21 29 -29 50 -29 16 0
29 5 29 10 0 6 -3 10 -8 10 -4 0 -34 25 -66 56 -46 43 -69 57 -105 64 -78 14
-147 115 -166 242 -14 91 37 221 120 311 25 26 45 53 46 60 1 7 2 35 4 62 4
54 35 165 47 165 5 0 8 7 8 16 0 9 14 39 30 66 16 26 30 51 30 53 0 10 65 64
78 65 7 0 11 4 8 9 -8 12 24 38 56 46 15 4 30 16 33 26 4 11 10 17 14 15 4 -3
37 5 72 17 75 26 194 33 278 16z m-838 -256 c-38 -78 -75 -191 -96 -288 -26
-124 -37 -165 -44 -165 -3 0 -12 -12 -18 -28 -7 -15 -26 -32 -42 -38 -25 -10
-30 -8 -47 14 -53 69 -77 212 -53 322 27 127 158 236 286 239 l41 1 -27 -57z
m1625 40 c128 -43 204 -149 212 -298 4 -67 0 -95 -18 -151 -32 -95 -45 -113
-81 -110 -52 4 -76 54 -115 241 -18 86 -51 187 -90 273 -13 29 -24 55 -24 57
0 11 70 4 116 -12z m-468 -635 c7 -7 12 -22 12 -35 0 -19 -5 -23 -30 -23 -25
0 -30 4 -30 23 0 21 16 47 30 47 3 0 11 -5 18 -12z m-951 -1154 c-3 -3 -12 -4
-19 -1 -8 3 -5 6 6 6 11 1 17 -2 13 -5z"/>
<path d="M830 1372 c-26 -27 -60 -113 -60 -153 0 -57 27 -126 62 -161 47 -47
80 -49 130 -8 84 70 91 233 12 316 -43 46 -102 48 -144 6z m97 -62 c15 -31 9
-40 -28 -40 -24 0 -29 4 -29 23 0 26 19 49 35 44 5 -2 15 -14 22 -27z"/>
<path d="M1310 685 c0 -7 8 -15 48 -49 15 -13 21 -15 17 -5 -7 16 -65 64 -65
54z"/>
</g>
</svg>
