<?xml version="1.0" encoding="UTF-8"?>
<svg width="184px" height="181px" viewBox="0 0 184 181" version="1.1" xmlns="http://www.w3.org/2000/svg" xmlns:xlink="http://www.w3.org/1999/xlink">
    <!-- Generator: Sketch 43.1 (39012) - http://www.bohemiancoding.com/sketch -->
    <title>waves</title>
    <desc>Created with Sketch.</desc>
    <defs>
        <circle id="path-1" cx="92" cy="92" r="92"></circle>
    </defs>
    <g id="Page-1" stroke="none" stroke-width="1" fill="none" fill-rule="evenodd">
        <g id="Desktop-HD" transform="translate(-501.000000, -457.000000)">
            <g id="Post-1" transform="translate(169.000000, 456.000000)">
                <g id="waves" transform="translate(332.000000, 0.000000)">
                    <mask id="mask-2" fill="white">
                        <use xlink:href="#path-1"></use>
                    </mask>
                    <g id="Oval"></g>
                    <g id="Vagues" mask="url(#mask-2)">
                        <g transform="translate(-141.000000, -1.000000)" id="Calque_2">
                            <g>
                                <g id="Calque_1-2" stroke="#00F082" stroke-width="3">
                                    <path d="M0,92.62 C16.66,92.62 16.66,100.62 33.33,100.62 C50,100.62 50,92.62 66.66,92.62 C83.32,92.62 83.33,100.62 99.99,100.62 C116.65,100.62 116.66,92.62 133.32,92.62 C149.98,92.62 149.99,100.62 166.65,100.62 C183.31,100.62 183.31,92.62 199.98,92.62 C216.65,92.62 216.64,100.62 233.31,100.62 C249.98,100.62 249.98,92.62 266.64,92.62 C283.3,92.62 283.31,100.62 299.97,100.62 C316.63,100.62 316.64,92.62 333.3,92.62 C349.96,92.62 349.97,100.62 366.63,100.62 C383.29,100.62 383.3,92.62 399.97,92.62 C416.64,92.62 416.64,100.62 433.31,100.62" id="Shape"></path>
                                    <path d="M0,104.14 C16.66,104.14 16.66,112.14 33.33,112.14 C50,112.14 50,104.14 66.66,104.14 C83.32,104.14 83.33,112.14 99.99,112.14 C116.65,112.14 116.66,104.14 133.32,104.14 C149.98,104.14 149.99,112.14 166.65,112.14 C183.31,112.14 183.31,104.14 199.98,104.14 C216.65,104.14 216.64,112.14 233.31,112.14 C249.98,112.14 249.98,104.14 266.64,104.14 C283.3,104.14 283.31,112.14 299.97,112.14 C316.63,112.14 316.64,104.14 333.3,104.14 C349.96,104.14 349.97,112.14 366.63,112.14 C383.29,112.14 383.3,104.14 399.97,104.14 C416.64,104.14 416.64,112.14 433.31,112.14" id="Shape"></path>
                                    <path d="M0,115.66 C16.66,115.66 16.66,123.66 33.33,123.66 C50,123.66 50,115.66 66.66,115.66 C83.32,115.66 83.33,123.66 99.99,123.66 C116.65,123.66 116.66,115.66 133.32,115.66 C149.98,115.66 149.99,123.66 166.65,123.66 C183.31,123.66 183.31,115.66 199.98,115.66 C216.65,115.66 216.64,123.66 233.31,123.66 C249.98,123.66 249.98,115.66 266.64,115.66 C283.3,115.66 283.31,123.66 299.97,123.66 C316.63,123.66 316.64,115.66 333.3,115.66 C349.96,115.66 349.97,123.66 366.63,123.66 C383.29,123.66 383.3,115.66 399.97,115.66 C416.64,115.66 416.64,123.66 433.31,123.66" id="Shape"></path>
                                    <path d="M0,127.17 C16.66,127.17 16.66,135.17 33.33,135.17 C50,135.17 50,127.17 66.66,127.17 C83.32,127.17 83.33,135.17 99.99,135.17 C116.65,135.17 116.66,127.17 133.32,127.17 C149.98,127.17 149.99,135.17 166.65,135.17 C183.31,135.17 183.31,127.17 199.98,127.17 C216.65,127.17 216.64,135.17 233.31,135.17 C249.98,135.17 249.98,127.17 266.64,127.17 C283.3,127.17 283.31,135.17 299.97,135.17 C316.63,135.17 316.64,127.17 333.3,127.17 C349.96,127.17 349.97,135.17 366.63,135.17 C383.29,135.17 383.3,127.17 399.97,127.17 C416.64,127.17 416.64,135.17 433.31,135.17" id="Shape"></path>
                                    <path d="M0,138.69 C16.66,138.69 16.66,146.69 33.33,146.69 C50,146.69 50,138.69 66.66,138.69 C83.32,138.69 83.33,146.69 99.99,146.69 C116.65,146.69 116.66,138.69 133.32,138.69 C149.98,138.69 149.99,146.69 166.65,146.69 C183.31,146.69 183.31,138.69 199.98,138.69 C216.65,138.69 216.64,146.69 233.31,146.69 C249.98,146.69 249.98,138.69 266.64,138.69 C283.3,138.69 283.31,146.69 299.97,146.69 C316.63,146.69 316.64,138.69 333.3,138.69 C349.96,138.69 349.97,146.69 366.63,146.69 C383.29,146.69 383.3,138.69 399.97,138.69 C416.64,138.69 416.64,146.69 433.31,146.69" id="Shape"></path>
                                    <path d="M0,150.2 C16.66,150.2 16.66,158.2 33.33,158.2 C50,158.2 50,150.2 66.66,150.2 C83.32,150.2 83.33,158.2 99.99,158.2 C116.65,158.2 116.66,150.2 133.32,150.2 C149.98,150.2 149.99,158.2 166.65,158.2 C183.31,158.2 183.31,150.2 199.98,150.2 C216.65,150.2 216.64,158.2 233.31,158.2 C249.98,158.2 249.98,150.2 266.64,150.2 C283.3,150.2 283.31,158.2 299.97,158.2 C316.63,158.2 316.64,150.2 333.3,150.2 C349.96,150.2 349.97,158.2 366.63,158.2 C383.29,158.2 383.3,150.2 399.97,150.2 C416.64,150.2 416.64,158.2 433.31,158.2" id="Shape"></path>
                                    <path d="M0,161.72 C16.66,161.72 16.66,169.72 33.33,169.72 C50,169.72 50,161.72 66.66,161.72 C83.32,161.72 83.33,169.72 99.99,169.72 C116.65,169.72 116.66,161.72 133.32,161.72 C149.98,161.72 149.99,169.72 166.65,169.72 C183.31,169.72 183.31,161.72 199.98,161.72 C216.65,161.72 216.64,169.72 233.31,169.72 C249.98,169.72 249.98,161.72 266.64,161.72 C283.3,161.72 283.31,169.72 299.97,169.72 C316.63,169.72 316.64,161.72 333.3,161.72 C349.96,161.72 349.97,169.72 366.63,169.72 C383.29,169.72 383.3,161.72 399.97,161.72 C416.64,161.72 416.64,169.72 433.31,169.72" id="Shape"></path>
                                    <path d="M0,173.23 C16.66,173.23 16.66,181.23 33.33,181.23 C50,181.23 50,173.23 66.66,173.23 C83.32,173.23 83.33,181.23 99.99,181.23 C116.65,181.23 116.66,173.23 133.32,173.23 C149.98,173.23 149.99,181.23 166.65,181.23 C183.31,181.23 183.31,173.23 199.98,173.23 C216.65,173.23 216.64,181.23 233.31,181.23 C249.98,181.23 249.98,173.23 266.64,173.23 C283.3,173.23 283.31,181.23 299.97,181.23 C316.63,181.23 316.64,173.23 333.3,173.23 C349.96,173.23 349.97,181.23 366.63,181.23 C383.29,181.23 383.3,173.23 399.97,173.23 C416.64,173.23 416.64,181.23 433.31,181.23" id="Shape"></path>
                                    <path d="M0,0.5 C16.66,0.5 16.66,8.5 33.33,8.5 C50,8.5 50,0.5 66.66,0.5 C83.32,0.5 83.33,8.5 99.99,8.5 C116.65,8.5 116.66,0.5 133.32,0.5 C149.98,0.5 149.99,8.5 166.65,8.5 C183.31,8.5 183.31,0.5 199.98,0.5 C216.65,0.5 216.64,8.5 233.31,8.5 C249.98,8.5 249.98,0.5 266.64,0.5 C283.3,0.5 283.31,8.5 299.97,8.5 C316.63,8.5 316.64,0.5 333.3,0.5 C349.96,0.5 349.97,8.5 366.63,8.5 C383.29,8.5 383.3,0.5 399.97,0.5 C416.64,0.5 416.64,8.5 433.31,8.5" id="Shape"></path>
                                    <path d="M0,12 C16.66,12 16.66,20 33.33,20 C50,20 50,12 66.66,12 C83.32,12 83.32,20 100,20 C116.68,20 116.67,12 133.33,12 C149.99,12 150,20 166.66,20 C183.32,20 183.32,12 199.99,12 C216.66,12 216.65,20 233.32,20 C249.99,20 249.99,12 266.65,12 C283.31,12 283.32,20 299.98,20 C316.64,20 316.65,12 333.31,12 C349.97,12 349.98,20 366.64,20 C383.3,20 383.31,12 399.98,12 C416.65,12 416.65,20 433.32,20" id="Shape"></path>
                                    <path d="M0,23.53 C16.66,23.53 16.66,31.53 33.33,31.53 C50,31.53 50,23.53 66.66,23.53 C83.32,23.53 83.33,31.53 99.99,31.53 C116.65,31.53 116.66,23.53 133.32,23.53 C149.98,23.53 149.99,31.53 166.65,31.53 C183.31,31.53 183.31,23.53 199.98,23.53 C216.65,23.53 216.64,31.53 233.31,31.53 C249.98,31.53 249.98,23.53 266.64,23.53 C283.3,23.53 283.31,31.53 299.97,31.53 C316.63,31.53 316.64,23.53 333.3,23.53 C349.96,23.53 349.97,31.53 366.63,31.53 C383.29,31.53 383.3,23.53 399.97,23.53 C416.64,23.53 416.64,31.53 433.31,31.53" id="Shape"></path>
                                    <path d="M0,35 C16.66,35 16.66,43 33.33,43 C50,43 50,35 66.66,35 C83.32,35 83.32,43 100,43 C116.68,43 116.67,35 133.33,35 C149.99,35 150,43 166.66,43 C183.32,43 183.32,35 199.99,35 C216.66,35 216.65,43 233.32,43 C249.99,43 249.99,35 266.65,35 C283.31,35 283.32,43 299.98,43 C316.64,43 316.65,35 333.31,35 C349.97,35 349.98,43 366.64,43 C383.3,43 383.31,35 399.98,35 C416.65,35 416.65,43 433.32,43" id="Shape"></path>
                                    <path d="M0,46.56 C16.66,46.56 16.66,54.56 33.33,54.56 C50,54.56 50,46.56 66.66,46.56 C83.32,46.56 83.33,54.56 99.99,54.56 C116.65,54.56 116.66,46.56 133.32,46.56 C149.98,46.56 149.99,54.56 166.65,54.56 C183.31,54.56 183.31,46.56 199.98,46.56 C216.65,46.56 216.64,54.56 233.31,54.56 C249.98,54.56 249.98,46.56 266.64,46.56 C283.3,46.56 283.31,54.56 299.97,54.56 C316.63,54.56 316.64,46.56 333.3,46.56 C349.96,46.56 349.97,54.56 366.63,54.56 C383.29,54.56 383.3,46.56 399.97,46.56 C416.64,46.56 416.64,54.56 433.31,54.56" id="Shape"></path>
                                    <path d="M0,58.08 C16.66,58.08 16.66,66.08 33.33,66.08 C50,66.08 50,58.08 66.66,58.08 C83.32,58.08 83.33,66.08 99.99,66.08 C116.65,66.08 116.66,58.08 133.32,58.08 C149.98,58.08 149.99,66.08 166.65,66.08 C183.31,66.08 183.31,58.08 199.98,58.08 C216.65,58.08 216.64,66.08 233.31,66.08 C249.98,66.08 249.98,58.08 266.64,58.08 C283.3,58.08 283.31,66.08 299.97,66.08 C316.63,66.08 316.64,58.08 333.3,58.08 C349.96,58.08 349.97,66.08 366.63,66.08 C383.29,66.08 383.3,58.08 399.97,58.08 C416.64,58.08 416.64,66.08 433.31,66.08" id="Shape"></path>
                                    <path d="M0,69.59 C16.66,69.59 16.66,77.59 33.33,77.59 C50,77.59 50,69.59 66.66,69.59 C83.32,69.59 83.33,77.59 99.99,77.59 C116.65,77.59 116.66,69.59 133.32,69.59 C149.98,69.59 149.99,77.59 166.65,77.59 C183.31,77.59 183.31,69.59 199.98,69.59 C216.65,69.59 216.64,77.59 233.31,77.59 C249.98,77.59 249.98,69.59 266.64,69.59 C283.3,69.59 283.31,77.59 299.97,77.59 C316.63,77.59 316.64,69.59 333.3,69.59 C349.96,69.59 349.97,77.59 366.63,77.59 C383.29,77.59 383.3,69.59 399.97,69.59 C416.64,69.59 416.64,77.59 433.31,77.59" id="Shape"></path>
                                    <path d="M0,81.11 C16.66,81.11 16.66,89.11 33.33,89.11 C50,89.11 50,81.11 66.66,81.11 C83.32,81.11 83.33,89.11 99.99,89.11 C116.65,89.11 116.66,81.11 133.32,81.11 C149.98,81.11 149.99,89.11 166.65,89.11 C183.31,89.11 183.31,81.11 199.98,81.11 C216.65,81.11 216.64,89.11 233.31,89.11 C249.98,89.11 249.98,81.11 266.64,81.11 C283.3,81.11 283.31,89.11 299.97,89.11 C316.63,89.11 316.64,81.11 333.3,81.11 C349.96,81.11 349.97,89.11 366.63,89.11 C383.29,89.11 383.3,81.11 399.97,81.11 C416.64,81.11 416.64,89.11 433.31,89.11" id="Shape"></path>
                                </g>
                            </g>
                        </g>
                    </g>
                </g>
            </g>
        </g>
    </g>
</svg>